PathFileType	4	(X/Y/Z)	./resultDataOpenSim/trcMotMarkerGrf/sub06/qtm-01-04.trc
DataRate	CameraRate	NumFrames	NumMarkers	Units	OrigDataRate	OrigDataStartFrame	OrigNumFrames
250.000000	250.000000	14	24	m	250.000000	1	515
Frame#	Time	L.Toe.Tip			R.Toe.Tip			L.Ankle.Lat			R.Ankle.Lat			L.Ankle.Med			R.Ankle.Med			L.Heel			R.Heel			L.Knee.Lat			R.Knee.Lat			L.Knee.Med			R.Knee.Med			L.Thigh.Upper			R.Thigh.Upper			L.ASIS			R.ASIS			V.Sacral			L.Acromium			R.Acromium			C7			L.Elbow			R.Elbow			L.Wrist.Lat			R.Wrist.Lat
		X1	Y1	Z1	X2	Y2	Z2	X3	Y3	Z3	X4	Y4	Z4	X5	Y5	Z5	X6	Y6	Z6	X7	Y7	Z7	X8	Y8	Z8	X9	Y9	Z9	X10	Y10	Z10	X11	Y11	Z11	X12	Y12	Z12	X13	Y13	Z13	X14	Y14	Z14	X15	Y15	Z15	X16	Y16	Z16	X17	Y17	Z17	X18	Y18	Z18	X19	Y19	Z19	X20	Y20	Z20	X21	Y21	Z21	X22	Y22	Z22	X23	Y23	Z23	X24	Y24	Z24

1	0	-1.592396	0.032818418	-0.050241726	-0.95654708	0.12091806	0.14351605	-1.7100774	0.077910328	-0.06688397	-1.0867263	0.087487199	0.15118187	-1.6988489	0.092461111	0.016996342	-1.0749229	0.12021973	0.067933817	NaN	NaN	NaN	-1.1178478	0.045347455	0.076656293	-1.5269927	0.40537447	-0.090016895	-1.2434435	0.44280444	0.15783641	-1.5356205	0.40926217	0.029155423	-1.2515888	0.42085491	0.024957099	-1.4412326	0.78191967	-0.1575526	-1.4123924	0.77388556	0.18875794	-1.3534277	0.82425161	-0.11925742	-1.329914	0.82603324	0.1265218	-1.5232031	0.90712119	0.032774023	-1.3644464	1.312518	-0.16363185	-1.386032	1.2918462	0.19909878	-1.4479238	1.3466272	0.014709185	-1.3647524	0.9921445	-0.23913792	NaN	NaN	NaN	-1.1685966	0.84247338	-0.21859515	-1.4495974	0.77933243	0.28376949
2	0.004	-1.5923531	0.032796996	-0.050261019	-0.94768329	0.12265065	0.14309465	-1.7093636	0.078965197	-0.066965238	-1.0774919	0.087752507	0.15024775	-1.6975993	0.093328025	0.016802169	-1.0658364	0.12103892	0.067225331	NaN	NaN	NaN	-1.108392	0.045643337	0.075695651	-1.5230327	0.404701	-0.090104542	-1.2372075	0.44168665	0.15766005	-1.5308972	0.40848667	0.028936867	-1.245341	0.41987924	0.024603914	-1.4363981	0.780882	-0.15739159	-1.4060045	0.77272669	0.18881789	-1.3481418	0.82337617	-0.11942787	-1.3234143	0.82505243	0.12623387	-1.5172482	0.90596849	0.033655702	-1.3590587	1.3114096	-0.16329086	-1.3803951	1.2905683	0.19963112	-1.4424072	1.3456461	0.015365654	-1.3587181	0.99095419	-0.23840457	NaN	NaN	NaN	-1.1621187	0.84189838	-0.21760974	-1.4450567	0.77787181	0.28402307
3	0.008	-1.5923021	0.032775039	-0.050280659	-0.93908463	0.12412563	0.14257417	-1.7084689	0.080039995	-0.067095109	-1.0685622	0.087926752	0.14930773	-1.6975781	0.094067831	0.016972127	-1.0570693	0.12168758	0.066479849	NaN	NaN	NaN	-1.0991705	0.045788311	0.074731464	-1.5189834	0.40405667	-0.09019418	-1.230889	0.44062531	0.15746111	-1.5262482	0.40770942	0.028754983	-1.2390436	0.4190127	0.024275703	-1.4315223	0.77984532	-0.15713532	-1.3994732	0.77164065	0.18891673	-1.3429801	0.82246841	-0.11973333	-1.3168453	0.82408272	0.12593483	-1.5113416	0.90487124	0.034299785	-1.3536615	1.3103482	-0.16291297	-1.3747022	1.289311	0.20017446	-1.4368875	1.3446553	0.015943182	-1.3527099	0.98979175	-0.23765602	NaN	NaN	NaN	-1.1556715	0.84132876	-0.21662347	-1.4404448	0.77645575	0.28425291
4	0.012	-1.5922384	0.032752363	-0.050303143	-0.93091378	0.12518385	0.14187057	-1.7073815	0.081168593	-0.06728961	-1.0601199	0.087941087	0.14834001	-1.6992138	0.094619513	0.017632894	-1.0488137	0.12205789	0.065668206	NaN	NaN	NaN	-1.0903504	0.045724444	0.073742811	-1.5148155	0.40345697	-0.090284421	-1.2244193	0.43966129	0.1572276	-1.521717	0.40693535	0.028625209	-1.2326618	0.41831046	0.023977371	-1.4265701	0.77882864	-0.1567632	-1.3927822	0.77068108	0.18906128	-1.337998	0.82152735	-0.12023122	-1.3101798	0.82314665	0.125622	-1.5055588	0.90386145	0.034263718	-1.3482295	1.3093493	-0.16248776	-1.3689238	1.288086	0.20073596	-1.431333	1.343672	0.016478926	-1.3467309	0.98867025	-0.23687563	NaN	NaN	NaN	-1.1492637	0.84077165	-0.21563757	-1.4357068	0.77509845	0.28446642
5	0.016	-1.5921565	0.032731778	-0.050331986	-0.92323816	0.12577638	0.14094138	-1.7062305	0.082380862	-0.067538164	-1.0522232	0.087753904	0.14733906	-1.7014195	0.095169272	0.018420054	-1.0411368	0.12210727	0.064773118	NaN	NaN	NaN	-1.0821324	0.045459576	0.072764919	-1.510552	0.40290253	-0.090374505	-1.2177644	0.43882128	0.15695475	-1.5172838	0.40616516	0.028535487	-1.2262001	0.4177725	0.023708081	-1.4215315	0.77785376	-0.15632046	-1.3860215	0.76986464	0.18924254	-1.3330909	0.82059513	-0.12082486	-1.3034486	0.82227904	0.12530493	-1.4999818	0.90293304	0.033052536	-1.3427433	1.3084045	-0.16202909	-1.3630747	1.286897	0.20131543	-1.4257144	1.3427232	0.017074493	-1.3407843	0.98759485	-0.23607204	NaN	NaN	NaN	-1.1429089	0.84022997	-0.21465881	-1.430825	0.77379028	0.28468436
6	0.02	-1.5920449	0.032718964	-0.050373776	-0.91606568	0.12591403	0.13978484	-1.705118	0.083681808	-0.067824295	-1.0448612	0.087346063	0.14632014	-1.7024303	0.096063318	0.018745945	-1.0340271	0.12182693	0.063789666	NaN	NaN	NaN	-1.0746993	0.044992726	0.071861522	-1.5061918	0.4023823	-0.090468941	-1.2109437	0.43810578	0.15663269	-1.5128921	0.40538865	0.028457766	-1.2196733	0.41737123	0.023472419	-1.4164014	0.77692189	-0.15584897	-1.3792481	0.76917846	0.18945581	-1.3280396	0.81972156	-0.12132129	-1.2966834	0.82150721	0.12500245	-1.4945706	0.90204218	0.030700597	-1.3371916	1.3075055	-0.16154638	-1.3571786	1.2857421	0.20190743	-1.420028	1.3418181	0.017767052	-1.3348743	0.98657033	-0.2352742	NaN	NaN	NaN	-1.1366283	0.83969556	-0.21369754	-1.4258057	0.77252198	0.28491454
7	0.024	-1.5918889	0.032719825	-0.050438655	-0.9093832	0.1256161	0.13842235	-1.7040652	0.085056234	-0.068130659	-1.0380209	0.086714584	0.14528579	-1.701623	0.09743178	0.018415862	-1.0274468	0.12122732	0.062726084	NaN	NaN	NaN	-1.0680732	0.044303343	0.071032728	-1.5016943	0.40188358	-0.090566953	-1.2040208	0.43749768	0.15624837	-1.508451	0.40460709	0.028363656	-1.2130878	0.41707587	0.023265972	-1.4111724	0.77602475	-0.15535818	-1.3724447	0.76860297	0.18969233	-1.3227238	0.81892152	-0.1216168	-1.2898882	0.82083718	0.12473486	-1.4891165	0.9011442	0.028123143	-1.331575	1.306658	-0.16103659	-1.3512421	1.2846208	0.20250839	-1.4142989	1.3409505	0.018497475	-1.3290039	0.98559637	-0.23448751	NaN	NaN	NaN	-1.1304358	0.83915911	-0.21276068	-1.4206666	0.77130315	0.28515424
8	0.028	-1.5916958	0.032736897	-0.050525804	-0.9031726	0.12487906	0.13688609	-1.7030437	0.086495035	-0.068450341	-1.0317022	0.085860877	0.14421625	-1.6996989	0.099118548	0.017680264	-1.0213579	0.12033025	0.061594995	NaN	NaN	NaN	-1.0621453	0.043379774	0.070223254	-1.4970127	0.40139719	-0.090657942	-1.1970386	0.43699072	0.15580382	-1.5038367	0.40384618	0.028238259	-1.2064479	0.41686551	0.023073227	-1.4058415	0.77516221	-0.15484664	-1.3655847	0.76811676	0.18993289	-1.3171904	0.818178	-0.12176185	-1.2830586	0.8202593	0.12451536	-1.4833862	0.90022894	0.026474368	-1.3259036	1.3058725	-0.16049903	-1.3452566	1.2835396	0.20312379	-1.4085534	1.3401123	0.019188655	-1.3231705	0.98466844	-0.23368375	NaN	NaN	NaN	-1.1243269	0.83862208	-0.21184595	-1.4154308	0.77014911	0.28540305
9	0.032	-1.5915368	0.032766692	-0.050599616	-0.89741626	0.12367831	0.13520985	-1.7019655	0.088008718	-0.068805344	-1.0259064	0.08478355	0.14308527	-1.6974634	0.10093061	0.016817416	-1.0157349	0.11915644	0.060402416	NaN	NaN	NaN	-1.0568112	0.042238382	0.069379421	-1.492128	0.40091253	-0.090737242	-1.1899874	0.43658842	0.1553241	-1.4990274	0.40312922	0.028089607	-1.1997688	0.41672999	0.022882325	-1.4004105	0.77433636	-0.15431567	-1.3587155	0.76768959	0.19014392	-1.3115345	0.81747499	-0.12185051	-1.2762037	0.81975869	0.12434549	-1.4772608	0.89930378	0.026209863	-1.3201895	1.3051515	-0.15993415	-1.3392248	1.2825123	0.2037648	-1.4027948	1.3393005	0.019824103	-1.317369	0.98379413	-0.23283792	NaN	NaN	NaN	-1.1182891	0.83809448	-0.21094582	-1.4101146	0.76906	0.28566579
10	0.036	-1.5915135	0.032801366	-0.05060747	-0.89209959	0.12199998	0.13342152	-1.7007191	0.089615111	-0.069235682	-1.0206202	0.083484888	0.14188752	-1.6951993	0.10277519	0.01594083	-1.0105734	0.11772499	0.059146842	NaN	NaN	NaN	-1.0520237	0.040917218	0.06848066	-1.4870771	0.40042054	-0.090813042	-1.1828335	0.43628574	0.15483898	-1.4940967	0.40245644	0.027934276	-1.1930702	0.41665993	0.022684874	-1.3948777	0.77354228	-0.15376935	-1.3519278	0.76729351	0.1902893	-1.3058078	0.81681381	-0.12193044	-1.2693308	0.81932169	0.12421996	-1.4706701	0.89836309	0.02711915	-1.3144398	1.3044919	-0.15933409	-1.3331734	1.2815546	0.2044389	-1.3970051	1.3385181	0.020453055	-1.3115973	0.98299307	-0.23195162	NaN	NaN	NaN	-1.1123158	0.83758565	-0.21005562	-1.4047043	0.76802951	0.28594855
11	0.04	-1.5916004	0.032832895	-0.050558334	-0.88721145	0.1198659	0.13154383	-1.6992681	0.091319869	-0.069759632	-1.0158083	0.081979628	0.14065534	-1.6928276	0.10463924	0.015057497	-1.0058812	0.11605917	0.057830771	NaN	NaN	NaN	-1.0477671	0.039443219	0.067540419	-1.4819261	0.39991862	-0.090893559	-1.1755601	0.43606644	0.15436104	-1.4890332	0.40182513	0.027770378	-1.1863621	0.41663716	0.0224707	-1.3892357	0.77277542	-0.15322034	-1.3452105	0.76692748	0.19037801	-1.3000141	0.81620416	-0.12200615	-1.2624199	0.81894307	0.12413801	-1.4635194	0.89740349	0.028933757	-1.3086543	1.3038933	-0.15868979	-1.3271264	1.2806732	0.20514785	-1.3911683	1.3377684	0.021131243	-1.3058593	0.98227657	-0.23104955	NaN	NaN	NaN	-1.1064087	0.8370994	-0.20917253	-1.3991638	0.76705817	0.28625831
12	0.044	-1.5916032	0.03285836	-0.050542536	-0.8827438	0.11732938	0.12959985	-1.6976829	0.093107903	-0.070354328	-1.011437	0.080290374	0.1394258	-1.690298	0.10653388	0.014160441	-1.001655	0.1141812	0.056468407	NaN	NaN	NaN	-1.0440271	0.037818212	0.06656909	-1.4766965	0.39940278	-0.090981283	-1.1681803	0.4359075	0.15388327	-1.4837651	0.40123736	0.027580491	-1.179647	0.41664039	0.022236324	-1.3834733	0.77203437	-0.15268566	-1.3383775	0.76662662	0.19049309	-1.2941324	0.81564987	-0.12205927	-1.2554383	0.81862767	0.12410406	-1.4558514	0.89645648	0.031399311	-1.3028282	1.3033579	-0.15799624	-1.3210768	1.2798603	0.20589157	-1.3852841	1.3370504	0.021872824	-1.3001638	0.98164023	-0.23016325	NaN	NaN	NaN	-1.1005706	0.83663541	-0.20828968	-1.3934482	0.7661486	0.28660771
13	0.048	-1.5913823	0.032882635	-0.05062575	-0.87869162	0.11445737	0.12761098	-1.6960554	0.094953459	-0.070983993	-1.0074945	0.078435823	0.13819877	-1.6879589	0.10845527	0.013317506	-0.99787296	0.1121082	0.05507572	NaN	NaN	NaN	-1.0407876	0.036050541	0.065550311	-1.4713514	0.39886166	-0.09108261	-1.1607302	0.43578415	0.15338995	-1.4782869	0.40067833	0.027353919	-1.1729349	0.41665829	0.021994704	-1.3775797	0.77131184	-0.15216414	-1.3311296	0.76645115	0.1907551	-1.2881372	0.81514362	-0.12205642	-1.2483819	0.81837903	0.12411801	-1.4479949	0.8955742	0.034021258	-1.2969586	1.3028875	-0.15724874	-1.315003	1.2791023	0.20666939	-1.3793594	1.3363619	0.02266237	-1.2945165	0.9810729	-0.22929922	NaN	NaN	NaN	-1.0948027	0.83619418	-0.20740222	-1.3875146	0.76530256	0.28701052
14	0.052	-1.5910067	0.032912202	-0.050777599	-0.87505384	0.11132025	0.1255855	-1.6944131	0.096845406	-0.071635922	-1.003974	0.076428717	0.13694803	-1.6864554	0.11038466	0.012661667	-0.99451152	0.1098576	0.053658442	NaN	NaN	NaN	-1.0380548	0.034186307	0.06448246	-1.4658493	0.39828216	-0.091209858	-1.1532522	0.43568037	0.15286668	-1.472593	0.40011979	0.027089958	-1.166247	0.41668909	0.021767475	-1.3715518	0.77059957	-0.15162538	-1.3232323	0.76645241	0.19124531	-1.2820195	0.81467025	-0.12197653	-1.2412823	0.81819175	0.12417627	-1.4403552	0.89478026	0.036243236	-1.2910491	1.3024824	-0.15644723	-1.3089026	1.2783951	0.20747749	-1.3733994	1.335701	0.023479546	-1.2889168	0.9805656	-0.22842546	-1.4421024	0.99074252	0.24039398	-1.0891063	0.83578006	-0.20651305	-1.3813984	0.76451708	0.28746037
